<?xml version="1.0" encoding="UTF-8"?>
<!DOCTYPE svg PUBLIC "-//W3C//DTD SVG 1.1//EN" "http://www.w3.org/Graphics/SVG/1.1/DTD/svg11.dtd">
<svg xmlns="http://www.w3.org/2000/svg" version="1.1" width="256px" height="256px"
    style="shape-rendering:geometricPrecision; text-rendering:geometricPrecision; image-rendering:optimizeQuality; fill-rule:evenodd; clip-rule:evenodd"
    xmlns:xlink="http://www.w3.org/1999/xlink">
    <g>
        <path style="opacity:0.954" fill="#fcbe2d"
            d="M 59.5,3.5 C 87.5185,0.18523 110.185,9.51856 127.5,31.5C 153.237,1.45236 183.904,-4.71431 219.5,13C 249.052,34.3255 258.219,62.4922 247,97.5C 241.967,109.699 234.133,119.699 223.5,127.5C 253.548,153.237 259.714,183.904 242,219.5C 220.675,249.052 192.508,258.219 157.5,247C 145.276,241.936 135.276,234.102 127.5,223.5C 101.72,253.556 71.0535,259.723 35.5,242C 5.94807,220.675 -3.2186,192.508 8,157.5C 13.0643,145.276 20.8976,135.276 31.5,127.5C 1.45236,101.763 -4.71431,71.0959 13,35.5C 24.1385,18.5127 39.6385,7.84602 59.5,3.5 Z M 70.5,11.5 C 92.8122,12.663 110.146,22.4963 122.5,41C 115.694,54.6504 113.694,68.9838 116.5,84C 110.357,85.6543 104.857,88.4877 100,92.5C 99.5003,84.1733 99.3336,75.84 99.5,67.5C 103.09,67.4559 105.59,65.7892 107,62.5C 107.837,58.7054 107.504,55.0387 106,51.5C 96.7912,43.2891 87.2912,35.4558 77.5,28C 71.3323,26.6456 65.6656,27.6456 60.5,31C 52.9626,38.2062 45.1292,45.0396 37,51.5C 34.6509,56.6882 35.1509,61.5216 38.5,66C 40.0249,67.0086 41.6916,67.5086 43.5,67.5C 43.0391,80.2665 43.5391,92.9332 45,105.5C 45.7504,106.126 46.5838,106.626 47.5,107C 60.8333,107.333 74.1667,107.667 87.5,108C 84.3874,114.798 82.7207,121.965 82.5,129.5C 52.7085,133.686 30.8752,122.353 17,95.5C 6.14756,63.0537 14.9809,37.5537 43.5,19C 52.1616,14.7549 61.1616,12.2549 70.5,11.5 Z M 182.5,11.5 C 214.375,13.8775 234.208,30.5441 242,61.5C 245.17,87.6858 235.837,108.019 214,122.5C 200.35,115.694 186.016,113.694 171,116.5C 169.346,110.357 166.512,104.857 162.5,100C 166.443,98.3896 169.443,95.7229 171.5,92C 179.5,91.3333 187.5,91.3333 195.5,92C 199.169,98.9968 204.836,101.33 212.5,99C 215.5,97.3333 217.833,95 219.5,92C 225.364,92.6622 230.197,90.8288 234,86.5C 235.601,78.6047 235.934,70.6047 235,62.5C 233.833,61.3333 232.667,60.1667 231.5,59C 226.475,57.8953 221.475,56.7286 216.5,55.5C 214.676,50.2237 212.843,44.8903 211,39.5C 209.59,38.2125 208.09,37.0458 206.5,36C 191.167,35.3333 175.833,35.3333 160.5,36C 158.91,37.0458 157.41,38.2125 156,39.5C 154.157,44.8903 152.324,50.2237 150.5,55.5C 145.525,56.7286 140.525,57.8953 135.5,59C 134.333,60.1667 133.167,61.3333 132,62.5C 131.5,69.4921 131.334,76.4921 131.5,83.5C 128.921,83.9167 126.754,83.25 125,81.5C 122.002,47.6503 136.502,25.1503 168.5,14C 173.294,13.0979 177.961,12.2645 182.5,11.5 Z M 68.5,36.5 C 71.8934,36.0617 74.8934,36.8951 77.5,39C 84.0186,45.0196 90.6853,50.853 97.5,56.5C 98.521,57.0016 98.6877,57.6683 98,58.5C 80.5738,59.6582 63.0738,59.8249 45.5,59C 44.2888,58.1072 44.2888,57.2739 45.5,56.5C 53.2116,49.7817 60.8783,43.1151 68.5,36.5 Z M 166.5,43.5 C 178.372,43.1972 190.205,43.5306 202,44.5C 202.945,44.9054 203.612,45.572 204,46.5C 205.361,52.1397 206.528,57.8063 207.5,63.5C 213.885,64.5771 220.219,65.9104 226.5,67.5C 228.011,72.523 227.678,77.3563 225.5,82C 224.271,82.7811 222.938,83.2811 221.5,83.5C 219.087,81.6108 216.754,79.4442 214.5,77C 206.33,73.5026 199.997,75.5026 195.5,83C 187.5,83.6667 179.5,83.6667 171.5,83C 167.003,75.5026 160.67,73.5026 152.5,77C 150.457,78.708 148.79,80.708 147.5,83C 144.044,83.8553 141.544,82.6886 140,79.5C 139.173,75.4589 139.34,71.4589 140.5,67.5C 146.781,65.9104 153.115,64.5771 159.5,63.5C 160.472,57.8063 161.639,52.1397 163,46.5C 163.985,45.1859 165.152,44.1859 166.5,43.5 Z M 51.5,67.5 C 64.8333,67.5 78.1667,67.5 91.5,67.5C 91.5,78.1667 91.5,88.8333 91.5,99.5C 88.8333,99.5 86.1667,99.5 83.5,99.5C 83.5,91.5 83.5,83.5 83.5,75.5C 75.5,75.5 67.5,75.5 59.5,75.5C 59.5,83.5 59.5,91.5 59.5,99.5C 56.8333,99.5 54.1667,99.5 51.5,99.5C 51.5,88.8333 51.5,78.1667 51.5,67.5 Z M 67.5,83.5 C 70.1667,83.5 72.8333,83.5 75.5,83.5C 75.5,88.8333 75.5,94.1667 75.5,99.5C 72.8333,99.5 70.1667,99.5 67.5,99.5C 67.5,94.1667 67.5,88.8333 67.5,83.5 Z M 157.5,84.5 C 162.159,84.0146 163.492,85.848 161.5,90C 156.728,90.8104 155.395,88.9771 157.5,84.5 Z M 205.5,84.5 C 210.159,84.0146 211.492,85.848 209.5,90C 204.728,90.8104 203.395,88.9771 205.5,84.5 Z M 119.5,92.5 C 140.84,90.3588 155.007,99.3588 162,119.5C 164.631,140.86 155.798,155.027 135.5,162C 114.14,164.631 99.9734,155.798 93,135.5C 90.5795,114.112 99.4128,99.779 119.5,92.5 Z M 123.5,115.5 C 129.167,115.167 131.833,117.833 131.5,123.5C 125.833,123.833 123.167,121.167 123.5,115.5 Z M 182.5,123.5 C 211.942,125.632 231.442,140.632 241,168.5C 246.617,206.444 231.117,230.944 194.5,242C 168.133,245.428 147.467,236.095 132.5,214C 139.306,200.35 141.306,186.016 138.5,171C 141.208,169.931 143.875,168.764 146.5,167.5C 147.033,181.581 147.867,195.581 149,209.5C 149.75,210.126 150.584,210.626 151.5,211C 158.158,211.5 164.825,211.666 171.5,211.5C 171.5,214.167 171.5,216.833 171.5,219.5C 168.833,219.5 166.167,219.5 163.5,219.5C 163.5,222.167 163.5,224.833 163.5,227.5C 179.5,227.5 195.5,227.5 211.5,227.5C 211.5,224.833 211.5,222.167 211.5,219.5C 208.833,219.5 206.167,219.5 203.5,219.5C 203.5,216.833 203.5,214.167 203.5,211.5C 210.175,211.666 216.842,211.5 223.5,211C 225.333,210.5 226.5,209.333 227,207.5C 227.667,188.833 227.667,170.167 227,151.5C 226.5,149.667 225.333,148.5 223.5,148C 204.833,147.667 186.167,147.333 167.5,147C 170.776,140.24 172.276,133.073 172,125.5C 175.603,124.865 179.103,124.198 182.5,123.5 Z M 123.5,131.5 C 129.167,131.167 131.833,133.833 131.5,139.5C 125.833,139.833 123.167,137.167 123.5,131.5 Z M 40.5,132.5 C 54.3219,139.293 68.8219,141.293 84,138.5C 85.0695,141.208 86.2361,143.875 87.5,146.5C 66.5079,147.666 45.5079,147.833 24.5,147C 29.4309,141.562 34.7642,136.728 40.5,132.5 Z M 91.5,154.5 C 98.3771,162.775 107.044,168.275 117.5,171C 121.541,171.173 125.541,171.673 129.5,172.5C 133.032,191.396 128.532,208.062 116,222.5C 115.5,213.506 115.334,204.506 115.5,195.5C 104.833,195.5 94.1667,195.5 83.5,195.5C 83.5,187.5 83.5,179.5 83.5,171.5C 86.1667,171.5 88.8333,171.5 91.5,171.5C 91.5,165.833 91.5,160.167 91.5,154.5 Z M 18.5,155.5 C 19.4881,160.64 19.8214,165.974 19.5,171.5C 22.1667,171.5 24.8333,171.5 27.5,171.5C 27.6666,188.503 27.4999,205.503 27,222.5C 13.6525,206.782 9.31915,188.782 14,168.5C 15.514,164.146 17.014,159.812 18.5,155.5 Z M 27.5,155.5 C 46.1667,155.5 64.8333,155.5 83.5,155.5C 83.5,158.167 83.5,160.833 83.5,163.5C 64.8333,163.5 46.1667,163.5 27.5,163.5C 27.5,160.833 27.5,158.167 27.5,155.5 Z M 161.5,155.5 C 180.833,155.5 200.167,155.5 219.5,155.5C 219.5,166.167 219.5,176.833 219.5,187.5C 198.167,187.5 176.833,187.5 155.5,187.5C 155.334,178.827 155.5,170.16 156,161.5C 158.721,160.281 160.554,158.281 161.5,155.5 Z M 35.5,171.5 C 48.8333,171.5 62.1667,171.5 75.5,171.5C 75.5,179.5 75.5,187.5 75.5,195.5C 70.1667,195.5 64.8333,195.5 59.5,195.5C 59.5,206.167 59.5,216.833 59.5,227.5C 51.5,227.5 43.5,227.5 35.5,227.5C 35.5,208.833 35.5,190.167 35.5,171.5 Z M 155.5,195.5 C 176.833,195.5 198.167,195.5 219.5,195.5C 219.5,198.167 219.5,200.833 219.5,203.5C 198.167,203.5 176.833,203.5 155.5,203.5C 155.5,200.833 155.5,198.167 155.5,195.5 Z M 67.5,203.5 C 80.8333,203.5 94.1667,203.5 107.5,203.5C 107.5,211.5 107.5,219.5 107.5,227.5C 94.1667,227.5 80.8333,227.5 67.5,227.5C 67.5,219.5 67.5,211.5 67.5,203.5 Z M 179.5,211.5 C 184.833,211.5 190.167,211.5 195.5,211.5C 195.5,214.167 195.5,216.833 195.5,219.5C 190.167,219.5 184.833,219.5 179.5,219.5C 179.5,216.833 179.5,214.167 179.5,211.5 Z M 43.5,236.5 C 61.9955,235.338 80.6621,235.171 99.5,236C 85.6198,242.801 71.2865,244.468 56.5,241C 52.1457,239.486 47.8124,237.986 43.5,236.5 Z" />
    </g>
    <g>
        <path style="opacity:0.966" fill="#fcbe2c"
            d="M 123.5,99.5 C 126.167,99.5 128.833,99.5 131.5,99.5C 131.336,102.187 131.503,104.854 132,107.5C 138.524,110.884 141.024,116.217 139.5,123.5C 137.143,123.337 134.81,123.503 132.5,124C 135.333,125.5 137.5,127.667 139,130.5C 139.499,136.157 139.666,141.824 139.5,147.5C 136.833,147.5 134.167,147.5 131.5,147.5C 131.5,150.167 131.5,152.833 131.5,155.5C 128.833,155.5 126.167,155.5 123.5,155.5C 123.664,152.813 123.497,150.146 123,147.5C 116.476,144.116 113.976,138.783 115.5,131.5C 117.857,131.663 120.19,131.497 122.5,131C 119.667,129.5 117.5,127.333 116,124.5C 115.501,118.843 115.334,113.176 115.5,107.5C 118.167,107.5 120.833,107.5 123.5,107.5C 123.5,104.833 123.5,102.167 123.5,99.5 Z M 123.5,115.5 C 123.167,121.167 125.833,123.833 131.5,123.5C 131.833,117.833 129.167,115.167 123.5,115.5 Z M 123.5,131.5 C 123.167,137.167 125.833,139.833 131.5,139.5C 131.833,133.833 129.167,131.167 123.5,131.5 Z" />
    </g>
    <g>
        <path style="opacity:1" fill="#fbbf2c"
            d="M 43.5,179.5 C 46.1667,179.5 48.8333,179.5 51.5,179.5C 51.5,182.167 51.5,184.833 51.5,187.5C 48.8333,187.5 46.1667,187.5 43.5,187.5C 43.5,184.833 43.5,182.167 43.5,179.5 Z" />
    </g>
    <g>
        <path style="opacity:1" fill="#fbbf2c"
            d="M 59.5,179.5 C 62.1667,179.5 64.8333,179.5 67.5,179.5C 67.5,182.167 67.5,184.833 67.5,187.5C 64.8333,187.5 62.1667,187.5 59.5,187.5C 59.5,184.833 59.5,182.167 59.5,179.5 Z" />
    </g>
    <g>
        <path style="opacity:1" fill="#fbbf2c"
            d="M 43.5,195.5 C 46.1667,195.5 48.8333,195.5 51.5,195.5C 51.5,198.167 51.5,200.833 51.5,203.5C 48.8333,203.5 46.1667,203.5 43.5,203.5C 43.5,200.833 43.5,198.167 43.5,195.5 Z" />
    </g>
    <g>
        <path style="opacity:1" fill="#fbbf2c"
            d="M 43.5,211.5 C 46.1667,211.5 48.8333,211.5 51.5,211.5C 51.5,214.167 51.5,216.833 51.5,219.5C 48.8333,219.5 46.1667,219.5 43.5,219.5C 43.5,216.833 43.5,214.167 43.5,211.5 Z" />
    </g>
    <g>
        <path style="opacity:1" fill="#fbbf2c"
            d="M 75.5,211.5 C 78.1667,211.5 80.8333,211.5 83.5,211.5C 83.5,214.167 83.5,216.833 83.5,219.5C 80.8333,219.5 78.1667,219.5 75.5,219.5C 75.5,216.833 75.5,214.167 75.5,211.5 Z" />
    </g>
    <g>
        <path style="opacity:1" fill="#fbbf2c"
            d="M 91.5,211.5 C 94.1667,211.5 96.8333,211.5 99.5,211.5C 99.5,214.167 99.5,216.833 99.5,219.5C 96.8333,219.5 94.1667,219.5 91.5,219.5C 91.5,216.833 91.5,214.167 91.5,211.5 Z" />
    </g>
</svg>