<svg id="visual" viewBox="0 0 960 540" width="960" height="540" xmlns="http://www.w3.org/2000/svg"
    xmlns:xlink="http://www.w3.org/1999/xlink" version="1.1">
    <rect x="0" y="0" width="960" height="540" fill="#000b16"></rect>
    <path
        d="M0 288L13.3 301.2C26.7 314.3 53.3 340.7 80 347.2C106.7 353.7 133.3 340.3 160 355.5C186.7 370.7 213.3 414.3 240 431.7C266.7 449 293.3 440 320 421.7C346.7 403.3 373.3 375.7 400 357C426.7 338.3 453.3 328.7 480 316.3C506.7 304 533.3 289 560 305C586.7 321 613.3 368 640 364C666.7 360 693.3 305 720 286C746.7 267 773.3 284 800 314.3C826.7 344.7 853.3 388.3 880 394.7C906.7 401 933.3 370 946.7 354.5L960 339L960 541L946.7 541C933.3 541 906.7 541 880 541C853.3 541 826.7 541 800 541C773.3 541 746.7 541 720 541C693.3 541 666.7 541 640 541C613.3 541 586.7 541 560 541C533.3 541 506.7 541 480 541C453.3 541 426.7 541 400 541C373.3 541 346.7 541 320 541C293.3 541 266.7 541 240 541C213.3 541 186.7 541 160 541C133.3 541 106.7 541 80 541C53.3 541 26.7 541 13.3 541L0 541Z"
        fill="#EEBE3D" stroke-linecap="round" stroke-linejoin="miter"></path>
</svg>