<?xml version="1.0" encoding="UTF-8"?>
<!DOCTYPE svg PUBLIC "-//W3C//DTD SVG 1.1//EN" "http://www.w3.org/Graphics/SVG/1.1/DTD/svg11.dtd">
<svg xmlns="http://www.w3.org/2000/svg" version="1.1" width="512px" height="512px"
    style="shape-rendering:geometricPrecision; text-rendering:geometricPrecision; image-rendering:optimizeQuality; fill-rule:evenodd; clip-rule:evenodd"
    xmlns:xlink="http://www.w3.org/1999/xlink">
    <g>
        <path style="opacity:0.991" fill="#000000"
            d="M 233.5,-0.5 C 248.167,-0.5 262.833,-0.5 277.5,-0.5C 377.766,12.0408 449.266,64.0408 492,155.5C 502.296,180.684 508.796,206.684 511.5,233.5C 511.5,248.167 511.5,262.833 511.5,277.5C 498.959,377.766 446.959,449.266 355.5,492C 330.316,502.296 304.316,508.796 277.5,511.5C 262.833,511.5 248.167,511.5 233.5,511.5C 133.234,498.959 61.734,446.959 19,355.5C 8.70393,330.316 2.20393,304.316 -0.5,277.5C -0.5,262.833 -0.5,248.167 -0.5,233.5C 12.0408,133.234 64.0408,61.734 155.5,19C 180.684,8.70393 206.684,2.20393 233.5,-0.5 Z M 376.5,150.5 C 398.189,152.856 410.189,164.856 412.5,186.5C 412.377,193.326 410.543,199.659 407,205.5C 350.861,262.639 294.361,319.473 237.5,376C 222.602,386.035 207.935,385.702 193.5,375C 164.333,345.833 135.167,316.667 106,287.5C 93.3174,266.068 97.1508,248.235 117.5,234C 130.675,227.927 143.341,228.927 155.5,237C 175.167,256.667 194.833,276.333 214.5,296C 215.5,296.667 216.5,296.667 217.5,296C 263.167,250.333 308.833,204.667 354.5,159C 361.129,154.073 368.463,151.239 376.5,150.5 Z" />
    </g>
</svg>