<?xml version="1.0" encoding="UTF-8"?>
<!DOCTYPE svg PUBLIC "-//W3C//DTD SVG 1.1//EN" "http://www.w3.org/Graphics/SVG/1.1/DTD/svg11.dtd">
<svg xmlns="http://www.w3.org/2000/svg" version="1.1" width="256px" height="256px" style="shape-rendering:geometricPrecision; text-rendering:geometricPrecision; image-rendering:optimizeQuality; fill-rule:evenodd; clip-rule:evenodd" xmlns:xlink="http://www.w3.org/1999/xlink">
<g><path style="opacity:0.92" fill="#fcbe2d" d="M 133.5,40.5 C 136.695,39.9607 139.195,40.9607 141,43.5C 141.284,51.3506 141.784,59.1839 142.5,67C 142.401,72.3854 139.734,74.3854 134.5,73C 131.667,70.8333 128.833,68.6667 126,66.5C 108.333,88.1667 90.6667,109.833 73,131.5C 70.9327,134.07 68.4327,136.07 65.5,137.5C 60.9498,135.742 59.7832,132.742 62,128.5C 80.3333,106.167 98.6667,83.8333 117,61.5C 117.667,60.8333 117.667,60.1667 117,59.5C 114.667,57.8333 112.333,56.1667 110,54.5C 107.503,50.6489 108.337,47.8155 112.5,46C 119.707,44.4661 126.707,42.6328 133.5,40.5 Z M 129.5,51.5 C 132.247,52.9728 133.081,55.3061 132,58.5C 129.555,57.0229 127.388,55.1896 125.5,53C 127.058,52.79 128.391,52.29 129.5,51.5 Z"/></g>
<g><path style="opacity:0.934" fill="#fbbf2c" d="M 156.5,49.5 C 168.171,49.3335 179.838,49.5001 191.5,50C 192,50.5 192.5,51 193,51.5C 193.5,102.832 193.667,154.166 193.5,205.5C 196.777,205.216 199.943,205.549 203,206.5C 204.855,209.368 204.355,211.868 201.5,214C 152.167,214.667 102.833,214.667 53.5,214C 51.5426,211.879 51.0426,209.379 52,206.5C 54.7191,205.556 57.5525,205.223 60.5,205.5C 60.3334,186.83 60.5001,168.164 61,149.5C 61.3742,148.584 61.8742,147.75 62.5,147C 74.1667,146.333 85.8333,146.333 97.5,147C 98.1258,147.75 98.6258,148.584 99,149.5C 99.4999,168.164 99.6666,186.83 99.5,205.5C 102.167,205.5 104.833,205.5 107.5,205.5C 107.333,178.498 107.5,151.498 108,124.5C 108.5,124 109,123.5 109.5,123C 121.409,122.179 133.243,122.346 145,123.5C 145.5,150.831 145.667,178.165 145.5,205.5C 148.833,205.5 152.167,205.5 155.5,205.5C 155.171,153.428 155.505,101.428 156.5,49.5 Z M 164.5,58.5 C 170.833,58.5 177.167,58.5 183.5,58.5C 183.5,107.5 183.5,156.5 183.5,205.5C 177.167,205.5 170.833,205.5 164.5,205.5C 164.5,156.5 164.5,107.5 164.5,58.5 Z M 117.5,131.5 C 123.833,131.5 130.167,131.5 136.5,131.5C 136.5,156.167 136.5,180.833 136.5,205.5C 130.167,205.5 123.833,205.5 117.5,205.5C 117.5,180.833 117.5,156.167 117.5,131.5 Z M 70.5,155.5 C 76.8333,155.5 83.1667,155.5 89.5,155.5C 89.5,172.167 89.5,188.833 89.5,205.5C 83.1667,205.5 76.8333,205.5 70.5,205.5C 70.5,188.833 70.5,172.167 70.5,155.5 Z"/></g>
</svg>
