<?xml version="1.0" encoding="UTF-8"?>
<!DOCTYPE svg PUBLIC "-//W3C//DTD SVG 1.1//EN" "http://www.w3.org/Graphics/SVG/1.1/DTD/svg11.dtd">
<svg xmlns="http://www.w3.org/2000/svg" version="1.1" width="512px" height="512px"
    style="shape-rendering:geometricPrecision; text-rendering:geometricPrecision; image-rendering:optimizeQuality; fill-rule:evenodd; clip-rule:evenodd"
    xmlns:xlink="http://www.w3.org/1999/xlink">
    <g>
        <path style="opacity:0.987" fill="#000000"
            d="M 286.5,-0.5 C 291.833,-0.5 297.167,-0.5 302.5,-0.5C 302.414,0.495904 302.748,1.32924 303.5,2C 300.035,4.4626 296.869,7.29593 294,10.5C 293.294,12.9712 293.627,15.3046 295,17.5C 307.186,27.5968 319.186,37.9301 331,48.5C 336.349,55.2082 339.349,62.8749 340,71.5C 340.333,89.5 340.667,107.5 341,125.5C 342,127.833 343.667,129.5 346,130.5C 346.958,132.199 347.458,134.033 347.5,136C 346.432,146.178 345.266,156.345 344,166.5C 337.151,181.044 331.485,196.044 327,211.5C 319.327,221.847 315.827,233.514 316.5,246.5C 317,252.5 317.5,258.5 318,264.5C 320.376,266.842 322.709,269.175 325,271.5C 328.028,280.944 331.361,290.278 335,299.5C 336.167,300.667 337.333,301.833 338.5,303C 379.414,318.53 419.414,336.196 458.5,356C 463.621,359.453 468.454,363.286 473,367.5C 479.154,392.772 484.987,418.105 490.5,443.5C 476.49,444.057 462.823,446.557 449.5,451C 410.448,464.35 371.781,478.683 333.5,494C 315.852,500.55 297.852,505.883 279.5,510C 277.5,510.667 275.5,510.667 273.5,510C 284.278,495.57 294.612,480.903 304.5,466C 288.586,421.341 272.253,376.841 255.5,332.5C 238.484,376.711 222.151,421.211 206.5,466C 216.786,481.394 227.452,496.56 238.5,511.5C 235.5,511.5 232.5,511.5 229.5,511.5C 211.814,508.911 194.481,504.411 177.5,498C 153.925,487.546 130.592,476.546 107.5,465C 80.1413,451.158 51.1413,443.991 20.5,443.5C 25.8575,418.402 31.6909,393.402 38,368.5C 42.6029,363.896 47.7696,360.062 53.5,357C 68.5184,348.49 83.8518,340.49 99.5,333C 123.248,323.195 146.915,313.195 170.5,303C 171.787,301.59 172.954,300.09 174,298.5C 177.028,289.056 180.361,279.722 184,270.5C 186.251,268.623 188.751,267.123 191.5,266C 192.46,264.581 193.293,263.081 194,261.5C 195.773,250.553 196.439,239.553 196,228.5C 189.806,221.452 185.139,213.452 182,204.5C 178.278,189.665 173.944,174.998 169,160.5C 166.485,151.837 164.985,143.003 164.5,134C 165.134,129.366 167.634,126.199 172,124.5C 172.333,123.167 172.667,121.833 173,120.5C 173.333,103.167 173.667,85.8333 174,68.5C 175.728,57.3775 180.395,47.7109 188,39.5C 205.628,22.7674 226.461,11.9341 250.5,7C 262.619,4.41062 274.619,1.91062 286.5,-0.5 Z M 241.5,296.5 C 250.857,296.168 260.19,296.502 269.5,297.5C 265.09,307.32 260.423,316.986 255.5,326.5C 250.291,316.75 245.625,306.75 241.5,296.5 Z M 338.5,394.5 C 362.5,394.5 386.5,394.5 410.5,394.5C 410.5,398.5 410.5,402.5 410.5,406.5C 386.5,406.5 362.5,406.5 338.5,406.5C 338.5,402.5 338.5,398.5 338.5,394.5 Z" />
    </g>
</svg>