<?xml version="1.0" encoding="UTF-8"?>
<!DOCTYPE svg PUBLIC "-//W3C//DTD SVG 1.1//EN" "http://www.w3.org/Graphics/SVG/1.1/DTD/svg11.dtd">
<svg xmlns="http://www.w3.org/2000/svg" version="1.1" width="256px" height="256px"
    style="shape-rendering:geometricPrecision; text-rendering:geometricPrecision; image-rendering:optimizeQuality; fill-rule:evenodd; clip-rule:evenodd"
    xmlns:xlink="http://www.w3.org/1999/xlink">
    <g>
        <path style="opacity:0.938" fill="#fcbf2c"
            d="M 255.5,141.5 C 255.5,145.833 255.5,150.167 255.5,154.5C 249.198,165.936 239.864,169.27 227.5,164.5C 226.667,190.16 226.167,215.827 226,241.5C 223.96,246.876 220.127,250.043 214.5,251C 156.5,251.667 98.5,251.667 40.5,251C 34.8733,250.043 31.04,246.876 29,241.5C 28.8332,215.827 28.3332,190.16 27.5,164.5C 15.1358,169.27 5.80245,165.936 -0.5,154.5C -0.5,150.167 -0.5,145.833 -0.5,141.5C 0.892318,139.727 2.05898,137.727 3,135.5C 28.8333,109.667 54.6667,83.8333 80.5,58C 76.5769,54.3232 74.0769,49.8232 73,44.5C 70.0414,20.3948 80.5414,6.72812 104.5,3.5C 113.169,4.00349 120.836,7.00349 127.5,12.5C 146.233,-0.887259 163.066,1.11274 178,18.5C 183.616,29.6518 183.949,40.9852 179,52.5C 177.859,54.6089 176.359,56.4422 174.5,58C 181.253,64.0816 187.253,70.7483 192.5,78C 191.392,83.023 188.392,84.6897 183.5,83C 177.985,77.3184 172.319,71.8184 166.5,66.5C 162.682,69.8176 159.015,73.3176 155.5,77C 181.5,103 207.5,129 233.5,155C 241.718,156.115 245.218,152.615 244,144.5C 234.364,133.863 224.364,123.529 214,113.5C 211.804,106.691 214.304,103.857 221.5,105C 231.667,115.167 241.833,125.333 252,135.5C 252.941,137.727 254.108,139.727 255.5,141.5 Z M 101.5,14.5 C 111.025,14.596 118.692,18.4293 124.5,26C 126.5,26.6667 128.5,26.6667 130.5,26C 144.488,10.3133 157.655,10.8133 170,27.5C 172.397,34.7974 171.731,41.7974 168,48.5C 154.955,62.046 141.455,75.046 127.5,87.5C 113.545,75.046 100.045,62.046 87,48.5C 79.5538,31.74 84.3871,20.4067 101.5,14.5 Z M 87.5,66.5 C 91.9046,69.3958 95.9046,72.8958 99.5,77C 73.5,103 47.5,129 21.5,155C 11.8745,155.71 8.7078,151.543 12,142.5C 37.3682,117.299 62.5349,91.9653 87.5,66.5 Z M 107.5,84.5 C 112.965,89.4636 118.298,94.6303 123.5,100C 126.167,102 128.833,102 131.5,100C 136.667,94.8333 141.833,89.6667 147,84.5C 169.667,107.167 192.333,129.833 215,152.5C 215.667,181.167 215.667,209.833 215,238.5C 214.25,239.126 213.416,239.626 212.5,240C 206.509,240.499 200.509,240.666 194.5,240.5C 194.667,222.497 194.5,204.497 194,186.5C 192.909,177.143 188.409,169.977 180.5,165C 186.544,148.132 181.211,136.465 164.5,130C 139.533,128.968 129.867,140.634 135.5,165C 132.688,166.977 130.022,169.144 127.5,171.5C 124.978,169.144 122.312,166.977 119.5,165C 124.971,148.281 119.638,136.614 103.5,130C 84.7937,127.381 74.127,135.381 71.5,154C 71.9981,157.834 72.9981,161.501 74.5,165C 66.5909,169.977 62.0909,177.143 61,186.5C 60.5001,204.497 60.3334,222.497 60.5,240.5C 54.4908,240.666 48.4908,240.499 42.5,240C 41.5838,239.626 40.7504,239.126 40,238.5C 39.3333,210.167 39.3333,181.833 40,153.5C 62.2853,130.38 84.7853,107.38 107.5,84.5 Z M 92.5,140.5 C 105.651,139.484 111.485,145.484 110,158.5C 102.939,170.188 94.606,171.188 85,161.5C 81.2232,152.367 83.7232,145.367 92.5,140.5 Z M 153.5,140.5 C 168.673,140.241 174.173,147.241 170,161.5C 160.394,171.188 152.061,170.188 145,158.5C 143.3,150.237 146.133,144.237 153.5,140.5 Z M 80.5,174.5 C 91.1525,181.068 101.819,181.068 112.5,174.5C 114.679,175.757 116.679,177.257 118.5,179C 108.988,185.03 105.655,193.53 108.5,204.5C 104.673,208.146 101.84,212.48 100,217.5C 99.5003,225.159 99.3336,232.826 99.5,240.5C 90.1667,240.5 80.8333,240.5 71.5,240.5C 71.3334,223.163 71.5001,205.83 72,188.5C 72.5649,182.356 75.3982,177.689 80.5,174.5 Z M 141.5,174.5 C 149.379,179.055 157.712,180.222 166.5,178C 168.833,176.833 171.167,175.667 173.5,174.5C 179.393,177.278 182.56,181.945 183,188.5C 183.5,205.83 183.667,223.163 183.5,240.5C 174.167,240.5 164.833,240.5 155.5,240.5C 155.666,232.826 155.5,225.159 155,217.5C 153.16,212.48 150.327,208.146 146.5,204.5C 149.345,193.53 146.012,185.03 136.5,179C 138.24,177.483 139.906,175.983 141.5,174.5 Z M 125.5,188.5 C 134.413,189.336 137.58,194.003 135,202.5C 128.863,208.255 123.53,207.588 119,200.5C 118.312,194.871 120.479,190.871 125.5,188.5 Z M 115.5,214.5 C 123.168,218.445 130.835,218.445 138.5,214.5C 141.47,215.427 143.303,217.427 144,220.5C 144.5,227.158 144.666,233.825 144.5,240.5C 133.167,240.5 121.833,240.5 110.5,240.5C 110.334,233.825 110.5,227.158 111,220.5C 111.804,217.854 113.304,215.854 115.5,214.5 Z" />
    </g>
    <g>
        <path style="opacity:0.885" fill="#fcbd2c"
            d="M 200.5,88.5 C 205.028,88.091 207.694,90.091 208.5,94.5C 206.213,99.7969 202.713,100.797 198,97.5C 196.272,93.8449 197.105,90.8449 200.5,88.5 Z" />
    </g>
</svg>