<?xml version="1.0" encoding="UTF-8"?>
<!DOCTYPE svg PUBLIC "-//W3C//DTD SVG 1.1//EN" "http://www.w3.org/Graphics/SVG/1.1/DTD/svg11.dtd">
<svg xmlns="http://www.w3.org/2000/svg" version="1.1" width="256px" height="256px"
    style="shape-rendering:geometricPrecision; text-rendering:geometricPrecision; image-rendering:optimizeQuality; fill-rule:evenodd; clip-rule:evenodd"
    xmlns:xlink="http://www.w3.org/1999/xlink">
    <g>
        <path style="opacity:0.852" fill="#000000"
            d="M 127.5,39.5 C 130.518,39.3354 133.518,39.502 136.5,40C 127.912,46.5419 119.078,52.7085 110,58.5C 104.319,55.147 101.152,50.147 100.5,43.5C 109.665,42.399 118.665,41.0657 127.5,39.5 Z" />
    </g>
    <g>
        <path style="opacity:0.966" fill="#000000"
            d="M 147.5,43.5 C 157.946,43.8996 161.613,49.0663 158.5,59C 169.92,56.4231 175.087,60.9231 174,72.5C 173.215,74.286 172.049,75.786 170.5,77C 181.295,77.1177 185.128,82.2844 182,92.5C 180.833,93.6667 179.667,94.8333 178.5,96C 190.096,97.0781 193.263,102.911 188,113.5C 172.386,129.863 155.553,144.696 137.5,158C 126.513,164.552 114.846,169.552 102.5,173C 98.7216,175.112 95.2216,177.612 92,180.5C 80.3423,165.185 69.1757,149.519 58.5,133.5C 59.6416,130.601 60.3083,127.601 60.5,124.5C 64.4724,125.949 67.8057,128.449 70.5,132C 85.9272,138.574 95.9272,133.74 100.5,117.5C 106.101,114.051 109.601,109.051 111,102.5C 117.42,98.6705 121.087,93.0039 122,85.5C 129.652,80.5254 132.652,73.5254 131,64.5C 129.392,61.6487 128.726,58.6487 129,55.5C 134.713,50.5752 140.88,46.5752 147.5,43.5 Z" />
    </g>
    <g>
        <path style="opacity:0.943" fill="#000000"
            d="M 91.5,45.5 C 96.4151,60.9736 107.082,68.6403 123.5,68.5C 122.548,75.4525 118.548,79.4525 111.5,80.5C 114.343,90.1696 110.677,95.3362 100.5,96C 103.551,105.414 100.217,110.58 90.5,111.5C 92.1592,125.326 86.4925,129.492 73.5,124C 69,119.5 64.5,115 60,110.5C 54.5642,100.538 57.3975,94.3715 68.5,92C 62.83,86.97 62.1633,81.3033 66.5,75C 69.2179,73.9282 71.8845,72.7616 74.5,71.5C 70.7136,59.7115 74.8802,54.7115 87,56.5C 87.2485,52.239 88.7485,48.5724 91.5,45.5 Z" />
    </g>
    <g>
        <path style="opacity:0.911" fill="#000000"
            d="M 193.5,119.5 C 195.09,125.027 196.257,130.694 197,136.5C 186.623,151.421 176.123,166.254 165.5,181C 164.5,181.667 163.5,181.667 162.5,181C 160.792,178.957 158.792,177.29 156.5,176C 150.051,173.52 143.718,170.853 137.5,168C 158.131,154.21 176.798,138.043 193.5,119.5 Z" />
    </g>
    <g>
        <path style="opacity:0.961" fill="#000000"
            d="M 46.5,136.5 C 47.675,136.281 48.675,136.614 49.5,137.5C 62.7457,155.658 75.7457,173.991 88.5,192.5C 81.3172,200.516 73.6505,208.016 65.5,215C 59.7736,216.104 54.4402,215.104 49.5,212C 35.8333,205.667 22.1667,199.333 8.5,193C 3.80557,187.553 3.30557,181.72 7,175.5C 20.6725,162.994 33.8392,149.994 46.5,136.5 Z" />
    </g>
    <g>
        <path style="opacity:0.961" fill="#000000"
            d="M 207.5,137.5 C 208.239,137.369 208.906,137.536 209.5,138C 223.054,151.554 236.554,165.054 250,178.5C 251.472,184.076 250.305,188.909 246.5,193C 230.5,200.333 214.5,207.667 198.5,215C 193.306,216.242 188.64,215.242 184.5,212C 179.199,205.698 173.532,199.698 167.5,194C 181.053,175.287 194.386,156.454 207.5,137.5 Z" />
    </g>
</svg>