<?xml version="1.0" encoding="utf-8"?>
<!-- Generator: Adobe Illustrator 27.0.0, SVG Export Plug-In . SVG Version: 6.00 Build 0)  -->
<svg version="1.1" id="Capa_1" xmlns="http://www.w3.org/2000/svg" xmlns:xlink="http://www.w3.org/1999/xlink" x="0px"
    y="0px" viewBox="0 0 387.99 94.28" style="enable-background:new 0 0 387.99 94.28;" xml:space="preserve">
    <style type="text/css">
        .st0 {
            fill: #FCBF2D;
        }

        .st1 {
            fill: #FFFFFF;
        }
    </style>
    <g>
        <g>
            <g>
                <path class="st0"
                    d="M293.26,38.2l2.32-9.34h-28.33L256.24,73h9.92l4.26-17.09h15.92l2.33-9.34h-15.92l2.08-8.38H293.26z" />
                <path class="st0" d="M322,40.32l-0.82,3.26c-1.86-2.56-4.89-4.04-8.86-4.04c-8.96,0-17.59,7.37-20.02,17.11
				c-2.43,9.74,2.52,17.11,11.49,17.11c3.97,0,7.73-1.47,10.86-4.04L313.85,73h9.36l8.14-32.68H322z M317.93,56.66
				c-1.16,4.61-5.41,8.08-10.02,8.08c-4.54,0-7.08-3.47-5.93-8.08c1.15-4.61,5.4-8.07,9.96-8.07
				C316.54,48.59,319.07,52.05,317.93,56.66z" />
                <path class="st0" d="M361.28,49.8c1.47-5.89-2.96-10.25-10.77-10.25c-7.18,0-13.92,3.66-15.65,10.58
				c-2.94,11.79,15.35,8.84,14.16,13.64c-0.37,1.48-2.37,2.57-4.74,2.57c-2.69,0-4.28-1.35-3.8-3.27h-9.35
				c-1.52,6.09,2.97,10.7,11.29,10.7c7.94,0,14.49-4.42,16.12-10.95c2.9-11.67-15.42-8.85-14.26-13.46
				c0.36-1.47,2.21-2.43,4.32-2.43c2.37,0,3.81,1.16,3.38,2.88H361.28z" />
                <path class="st0" d="M378.75,48.84h7.11l2.13-8.52h-7.11l2.14-8.58h-8.84l-0.82,3.27l-0.65,2.62c-0.01,0.01-0.02,0.03-0.03,0.04
				L372,40.32h-5.35l-2.13,8.52h4.87l-3.37,13.53C364.28,69.35,367.4,73,375.16,73h4.68l2.13-8.52h-3.26
				c-2.43,0-3.51-1.35-2.94-3.65L378.75,48.84z" />
            </g>
        </g>
        <g>
            <path class="st1" d="M97.35,30.21h3.88l-9.64,42.03h-3.88L97.35,30.21z" />
            <path class="st1" d="M108.45,42.5h3.5l-1.27,5.71h0.11c3.31-4.63,7.73-6.57,11.98-6.57c5.44,0,10.13,3.07,8.1,11.96l-4.26,18.64
			H123l3.86-17.03c1.74-7.44-1.56-10.24-5.88-10.24c-6.09,0-10.73,5.39-11.93,10.67l-3.78,16.6h-3.61L108.45,42.5z" />
            <path class="st1" d="M137.87,42.5h3.93c1.39,8.46,2.67,16.81,4.06,25.38h0.11c5.13-8.46,10.26-16.81,15.5-25.38h3.88l-18.53,29.74
			h-3.93L137.87,42.5z" />
            <path class="st1"
                d="M164.57,60.66c0.51-9.75,8.65-19.02,18.72-19.02c5.82,0,12.93,3.18,10.16,14.87l-0.41,1.62h-24.35
			c-1.45,7.17,2.02,11.8,8.33,11.8c5.23,0,9.55-3.39,12.14-7.6l3.06,1.19c-3.6,6.09-9.72,9.64-16.13,9.64
			C168.76,73.16,164.16,68.36,164.57,60.66z M189.92,55c1.63-7.54-2.97-10.18-7.49-10.18c-5.71,0-10.62,4.2-12.82,10.18H189.92z" />
            <path class="st1" d="M204.1,42.5h3.5c-0.43,2.05-0.97,4.09-1.4,6.14h0.22c2.43-4.15,6.89-7,11.25-7c1.02,0,2.25,0.16,3.25,0.59
			l-0.96,3.93c-0.89-0.43-2.5-0.7-3.63-0.7c-6.2,0-10.73,6.3-12.12,12.34l-3.29,14.44h-3.61L204.1,42.5z" />
            <path class="st1" d="M223.59,63.29c1.28-5.82,2.66-11.69,3.99-17.56h-5.93l0.76-3.23h5.93c0.64-2.91,1.28-5.93,1.97-8.84h3.66
			c-0.69,2.91-1.33,5.93-2.03,8.84h9.11l-0.76,3.23h-9.11c-1.26,5.55-2.52,11.05-3.78,16.54c-0.76,3.29-1.74,7.6,2.46,7.6
			c1.35,0,3.2-0.43,5.26-1.62l-0.77,3.45c-1.72,0.97-3.96,1.45-5.79,1.45C221.35,73.16,222.76,66.8,223.59,63.29z" />
            <path class="st1" d="M246.93,42.5h3.61l-6.78,29.74h-3.61L246.93,42.5z M251.89,29.03c1.46,0,2.42,1.08,2.35,2.48
			c-0.1,1.83-1.91,3.56-3.74,3.56c-1.51,0-2.48-1.02-2.4-2.48C248.2,30.7,249.95,29.03,251.89,29.03z" />
        </g>
        <g>
            <polygon class="st0" points="29.32,70.04 4.9,70.04 0,94.28 24.42,94.28 		" />
            <polygon class="st0" points="61.69,35.02 11.97,35.02 7.07,59.26 56.79,59.26 		" />
            <polygon class="st0" points="93.12,0 17.9,0 13,24.24 88.22,24.24 		" />
        </g>
    </g>
</svg>