<?xml version="1.0" encoding="UTF-8"?>
<!DOCTYPE svg PUBLIC "-//W3C//DTD SVG 1.1//EN" "http://www.w3.org/Graphics/SVG/1.1/DTD/svg11.dtd">
<svg xmlns="http://www.w3.org/2000/svg" version="1.1" width="283px" height="295px" style="shape-rendering:geometricPrecision; text-rendering:geometricPrecision; image-rendering:optimizeQuality; fill-rule:evenodd; clip-rule:evenodd" xmlns:xlink="http://www.w3.org/1999/xlink">
<g><path style="opacity:0.936" fill="#fabe2c" d="M 128.5,-0.5 C 133.167,-0.5 137.833,-0.5 142.5,-0.5C 187.325,6.15441 214.158,31.8211 223,76.5C 224.737,91.2428 223.07,105.576 218,119.5C 213.483,129.368 208.316,138.868 202.5,148C 207.833,148.333 213.167,148.667 218.5,149C 222.468,149.964 225.635,152.131 228,155.5C 245.941,194.381 263.607,233.381 281,272.5C 282.885,283.414 278.718,290.747 268.5,294.5C 183.167,294.5 97.8333,294.5 12.5,294.5C 9.76593,293.295 7.09926,291.795 4.5,290C 2.41499,287.318 0.748322,284.484 -0.5,281.5C -0.5,278.833 -0.5,276.167 -0.5,273.5C 16.7399,234.309 33.9065,194.976 51,155.5C 55.5931,150.242 61.4264,147.575 68.5,147.5C 57.5285,132.553 50.6951,115.887 48,97.5C 45.8234,53.6643 64.6567,22.831 104.5,5C 112.505,2.56955 120.505,0.736219 128.5,-0.5 Z M 123.5,13.5 C 159.46,10.0587 185.96,24.0587 203,55.5C 213.979,80.1583 212.645,104.158 199,127.5C 177.747,163.67 156.747,200.003 136,236.5C 113.748,198.997 91.7477,161.331 70,123.5C 55.0475,92.1194 58.7142,63.1194 81,36.5C 93.0134,24.7451 107.18,17.0785 123.5,13.5 Z M 63.5,161.5 C 68.0986,161.2 72.5986,161.533 77,162.5C 94.6667,193.167 112.333,223.833 130,254.5C 135.323,258.514 139.657,257.514 143,251.5C 160,221.833 177,192.167 194,162.5C 201.086,161.354 208.253,161.188 215.5,162C 233.383,199.646 250.883,237.48 268,275.5C 268.677,277.982 267.844,279.815 265.5,281C 182.167,281.667 98.8333,281.667 15.5,281C 13.1309,278.062 12.9642,274.896 15,271.5C 30.9065,234.69 47.0731,198.023 63.5,161.5 Z"/></g>
<g><path style="opacity:0.961" fill="#fabe2c" d="M 128.5,38.5 C 135.167,38.5 141.833,38.5 148.5,38.5C 148.5,43.8333 148.5,49.1667 148.5,54.5C 155.348,54.8783 162.015,56.2116 168.5,58.5C 169.344,65.119 168.178,71.4523 165,77.5C 164.439,78.0219 163.772,78.3552 163,78.5C 154.497,74.8662 145.664,73.6995 136.5,75C 131.29,76.2105 129.456,79.3772 131,84.5C 132.693,86.6035 134.86,88.1035 137.5,89C 148.122,91.1451 157.789,95.3118 166.5,101.5C 171.116,106.952 173.116,113.285 172.5,120.5C 171.573,136.099 163.573,146.099 148.5,150.5C 148.5,154.5 148.5,158.5 148.5,162.5C 141.833,162.5 135.167,162.5 128.5,162.5C 128.5,159.5 128.5,156.5 128.5,153.5C 119.55,153.284 110.883,151.617 102.5,148.5C 101.701,141.324 103.035,134.491 106.5,128C 113.826,129.868 121.326,131.368 129,132.5C 135.695,132.495 141.362,130.161 146,125.5C 146.847,122.412 146.347,119.579 144.5,117C 135.319,113.273 125.985,109.939 116.5,107C 105.155,100.001 100.988,89.834 104,76.5C 107.423,64.0293 115.59,57.0293 128.5,55.5C 128.5,49.8333 128.5,44.1667 128.5,38.5 Z"/></g>
</svg>
